<svg width="144" height="32" viewBox="0 0 144 32" fill="none" xmlns="http://www.w3.org/2000/svg">
<g clip-path="url(#clip0_14078_94106)">
<path d="M13.8798 0H4V9.6H13.8798V0Z" fill="#1980E5"/>
<path d="M13.8798 11.2H4V20.8H13.8798V11.2Z" fill="#1980E5"/>
<path d="M13.8798 22.4H4V32H13.8798V22.4Z" fill="#1980E5"/>
<path d="M25.4063 0H15.5264V9.6H25.4063V0Z" fill="#1980E5"/>
<path d="M36.9327 0H27.0529V9.6H36.9327V0Z" fill="#1980E5"/>
<path d="M20.4663 20.9067C23.2552 20.9067 25.516 18.7099 25.516 16C25.516 13.2901 23.2552 11.0933 20.4663 11.0933C17.6775 11.0933 15.4167 13.2901 15.4167 16C15.4167 18.7099 17.6775 20.9067 20.4663 20.9067Z" fill="#FA8033"/>
<path d="M48.7885 23.52C49.199 23.7056 49.9411 23.8933 51.3396 23.8933C53.0961 23.8933 55.7592 22.72 55.7592 18.72C55.7592 14.72 52.9863 14.08 51.8622 14.08C50.7688 14.0885 49.7018 14.4021 48.7885 14.9867V23.52ZM45.4952 25.3867V4.90668H48.7885V12.4544C49.9126 11.9083 51.153 11.6245 52.4111 11.6267C53.6186 11.6267 59.1623 12.2411 59.1623 18.8267C59.1623 24.96 53.5352 26.4533 51.3396 26.4533C49.0344 26.4533 46.3734 25.8133 45.4952 25.3867Z" fill="#242428"/>
<path d="M65.1999 7.49224C65.2153 8.58238 64.3195 9.47838 63.1976 9.49331C62.0757 9.50824 61.1536 8.63785 61.1382 7.54771C61.1229 6.45758 62.0186 5.56158 63.1405 5.54664C63.1493 5.54664 63.1603 5.54664 63.1691 5.54664C64.269 5.52744 65.178 6.37651 65.1999 7.44744C65.1999 7.46238 65.1999 7.47731 65.1999 7.49224ZM61.5224 11.9466V26.24H64.8157V11.9466H61.5224Z" fill="#242428"/>
<path d="M77.1369 23.1189C76.6166 23.4389 75.7647 23.8656 74.8865 23.8656C74.0917 23.8656 73.3782 23.5456 73.3782 21.8133V14.4H76.8625L77.4948 11.9467H73.3782V7.46667L70.0849 8.74667V11.9467H67.4503V14.4H70.0849V22.6133C70.0849 24.6123 71.2376 26.4533 74.1181 26.4533C75.5188 26.4533 77.2203 25.9733 78.2347 25.2523L77.1369 23.1189Z" fill="#242428"/>
<path d="M91.7503 8.96002L92.4089 6.40002H80.6629V26.24H83.9562V17.3078H91.5307V14.7478H83.9562V8.96002H91.7503Z" fill="#242428"/>
<path d="M98.1172 4.90668H94.824V26.24H98.1172V4.90668Z" fill="#242428"/>
<path d="M129.335 19.04C129.335 14.9866 127.359 11.6266 123.023 11.6266C118.687 11.6266 116.162 14.9866 116.162 19.04C116.162 23.52 118.961 26.4533 123.023 26.4533C125.548 26.4533 127.388 25.5189 128.622 24.3989L127.113 22.3189C125.932 23.2256 124.615 23.8933 123.298 23.8933C121.322 23.8933 119.491 22.3808 119.359 20.0256H129.28C129.318 19.6992 129.337 19.3685 129.335 19.04ZM123.023 14.08C124.924 14.08 126.161 15.4645 126.253 17.6789H119.361C119.499 15.6949 121.159 14.08 123.023 14.08Z" fill="#242428"/>
<path d="M139.024 11.6266C137.487 11.6266 136.389 12.4309 135.072 13.6341L134.633 11.9466H131.998V26.24H135.292V15.9658C135.95 15.3749 137.07 14.4256 138.227 14.4256C138.794 14.4298 139.349 14.5685 139.847 14.8266L141 12.1322C140.396 11.8016 139.716 11.6266 139.024 11.6266Z" fill="#242428"/>
<path d="M106.735 26.0523L100.313 11.9467H103.716L108.353 22.6667L112.059 11.9467H115.352L110.548 25.0133C108.353 30.9867 105.938 32 103.962 32C102.91 32 101.876 31.7227 100.971 31.2L102.069 28.6933C102.69 28.9685 103.362 29.1136 104.045 29.12C105.143 29.12 106.296 27.2533 106.735 26.0523Z" fill="#242428"/>
</g>
<defs>
<clipPath id="clip0_14078_94106">
<rect width="137" height="32" fill="white" transform="translate(4)"/>
</clipPath>
</defs>
</svg>
